<svg width="21" height="18" viewBox="0 0 21 18" fill="none" xmlns="http://www.w3.org/2000/svg">
  <path d="M19.9453 8.05957C20.2969 8.37598 20.332 8.90332 20.0508 9.25488C19.7344 9.60645 19.207 9.6416 18.8555 9.36035L18.0117 8.62207V15.1611C18.0117 16.7432 16.7461 17.9736 15.1992 17.9736H5.07422C3.49219 17.9736 2.26172 16.7432 2.26172 15.1611V8.62207L1.38281 9.36035C1.03125 9.6416 0.503906 9.60645 0.1875 9.25488C-0.09375 8.90332 -0.0585938 8.37598 0.292969 8.05957L9.57422 0.18457C9.89062 -0.0615234 10.3477 -0.0615234 10.6641 0.18457L19.9453 8.05957ZM5.07422 16.2861H6.76172V10.9424C6.76172 10.1689 7.35938 9.53613 8.16797 9.53613H12.1055C12.8789 9.53613 13.5117 10.1689 13.5117 10.9424V16.2861H15.1992C15.7969 16.2861 16.3242 15.7939 16.3242 15.1611V7.18066L10.1367 1.94238L3.94922 7.18066V15.1611C3.94922 15.7939 4.44141 16.2861 5.07422 16.2861ZM8.44922 16.2861H11.8242V11.2236H8.44922V16.2861Z" fill="#414651"/>
</svg>
